<svg xmlns="http://www.w3.org/2000/svg" width="1400" height="900" viewBox="0 0 1400 900" font-family="PingFang SC, Microsoft YaHei, sans-serif" role="img" aria-labelledby="title desc"><title id="title">技术报告封面</title><desc id="desc">报告封面390×552近似A4比例，题名系统的边界与协作效率；机构NOVA RESEARCH为虚构，版本1.0与日期明确。</desc><rect x="0.000" y="0.000" width="1400.000" height="900.000" fill="#eef2f6" rx="0" /><text x="64.000" y="48.000" font-size="14" fill="#596b80" text-anchor="start" font-weight="400" >SVG / BRAND &amp; TYPE</text><text x="1336.000" y="48.000" font-size="14" fill="#596b80" text-anchor="end" font-weight="400" >NOVA / CONCEPT BRAND</text><line x1="64.000" y1="70.000" x2="1336.000" y2="70.000" stroke="#596b80" stroke-width="1" /><text x="64.000" y="118.000" font-size="32" fill="#14263d" text-anchor="start" font-weight="700" >技术报告封面</text><text x="64.000" y="153.000" font-size="18" fill="#596b80" text-anchor="start" font-weight="400" >Technical Report Cover</text><line x1="64.000" y1="846.000" x2="1336.000" y2="846.000" stroke="#596b80" stroke-width="1" /><text x="64.000" y="878.000" font-size="14" fill="#596b80" text-anchor="start" font-weight="400" >示例品牌与版式 · 字体依赖系统环境 · 印刷图仅为示意</text><text x="1336.000" y="878.000" font-size="14" fill="#596b80" text-anchor="end" font-weight="400" >SVG-PROMPT</text><defs><symbol id="nova-mark" viewBox="0 0 6 6"><path d="M0 0 L2 0 L6 4 L6 6 L4 6 L0 2 Z M4 0 L6 0 L6 2 Z M0 4 L0 6 L2 6 Z"/></symbol><symbol id="nova-wordmark" viewBox="0 0 266 60"><path d="M0 0 H12 L42 38 V0 H54 V60 H42 L12 22 V60 H0 Z" transform="translate(0 0)" fill-rule="evenodd"/><path d="M12 0 H44 L56 12 V48 L44 60 H12 L0 48 V12 Z M17 12 L12 17 V43 L17 48 H39 L44 43 V17 L39 12 Z" transform="translate(66 0)" fill-rule="evenodd"/><path d="M0 0 H14 L30 43 L46 0 H60 L38 60 H22 Z" transform="translate(134 0)" fill-rule="evenodd"/><path d="M0 60 L22 0 H38 L60 60 H45 L40 45 H20 L15 60 Z M26 30 H34 L30 17 Z" transform="translate(206 0)" fill-rule="evenodd"/></symbol></defs><rect x="170.000" y="230.000" width="390.000" height="552.000" fill="#ffffff" rx="0" /><use href="#nova-mark" x="198" y="258" width="36" height="36" fill="#245ee8" data-mark-size="36" /><text x="250.000" y="284.000" font-size="15" fill="#14263d" text-anchor="start" font-weight="700" >NOVA RESEARCH</text><text x="198.000" y="370.000" font-size="14" fill="#245ee8" text-anchor="start" font-weight="400" >TECHNICAL REPORT</text><text x="198.000" y="445.000" font-size="36" fill="#14263d" text-anchor="start" font-weight="700" >系统的边界</text><text x="198.000" y="503.000" font-size="36" fill="#14263d" text-anchor="start" font-weight="700" >与协作效率</text><line x1="198.000" y1="620.000" x2="532.000" y2="560.000" stroke="#afc4ee" stroke-width="1" /><line x1="198.000" y1="634.000" x2="532.000" y2="574.000" stroke="#afc4ee" stroke-width="1" /><line x1="198.000" y1="648.000" x2="532.000" y2="588.000" stroke="#afc4ee" stroke-width="1" /><line x1="198.000" y1="662.000" x2="532.000" y2="602.000" stroke="#afc4ee" stroke-width="1" /><line x1="198.000" y1="676.000" x2="532.000" y2="616.000" stroke="#afc4ee" stroke-width="1" /><line x1="198.000" y1="690.000" x2="532.000" y2="630.000" stroke="#afc4ee" stroke-width="1" /><line x1="198.000" y1="704.000" x2="532.000" y2="644.000" stroke="#afc4ee" stroke-width="1" /><text x="198.000" y="698.000" font-size="14" fill="#14263d" text-anchor="start" font-weight="400" >研究报告 / 示例内容</text><text x="198.000" y="726.000" font-size="14" fill="#14263d" text-anchor="start" font-weight="400" >Version 1.0 · 2026-10-10</text><text x="720.000" y="315.000" font-size="26" fill="#14263d" text-anchor="start" font-weight="400" >TECHNICAL / REPORT</text><text x="720.000" y="390.000" font-size="26" fill="#14263d" text-anchor="start" font-weight="400" >题名 → 类型 → 版本</text><text x="720.000" y="465.000" font-size="26" fill="#14263d" text-anchor="start" font-weight="400" >机构 → 日期 → 状态</text><text x="720.000" y="665.000" font-size="18" fill="#596b80" text-anchor="start" font-weight="400" >A 系列纸张比例近似 1:√2。</text><text x="720.000" y="705.000" font-size="18" fill="#596b80" text-anchor="start" font-weight="400" >技术图形服务主题，不代替研究结论。</text><text x="720.000" y="745.000" font-size="18" fill="#596b80" text-anchor="start" font-weight="400" >此示例不暗示真实机构发布。</text></svg>
