<svg xmlns="http://www.w3.org/2000/svg" width="1400" height="900" viewBox="0 0 1400 900" font-family="PingFang SC, Microsoft YaHei, sans-serif" role="img" aria-labelledby="title desc"><title id="title">KPI 指标卡</title><desc id="desc">金额、订单和比率明确单位；累计序列最终值128450/840，比率序列最终值3.86/2.10；上一周期销售114279、订单800，比率4.26/2.50。转化率/退款率变化用百分点，下降是否有利由指标含义决定；迷你趋势各自独立尺度。</desc><rect x="0.000" y="0.000" width="1400.000" height="900.000" rx="0" fill="#eef2f7" /><text x="72.000" y="54.000" font-size="14" fill="#596b82" text-anchor="start" font-weight="600" >SVG / PRODUCT INTERFACES</text><text x="1328.000" y="54.000" font-size="14" fill="#596b82" text-anchor="end" font-weight="400" >DEMO · 状态示意</text><line x1="72.000" y1="74.000" x2="1328.000" y2="74.000" stroke="#dce4ee" stroke-width="1" /><text x="72.000" y="122.000" font-size="34" fill="#1d2e46" text-anchor="start" font-weight="700" >KPI 指标卡</text><text x="72.000" y="160.000" font-size="18" fill="#596b82" text-anchor="start" font-weight="400" >数据操作与指标 / 产品场景与状态设计</text><line x1="72.000" y1="846.000" x2="1328.000" y2="846.000" stroke="#dce4ee" stroke-width="1" /><text x="72.000" y="878.000" font-size="14" fill="#596b82" text-anchor="start" font-weight="400" >界面原型 · 模拟内容 · 控件状态不代表实际交互</text><text x="1328.000" y="878.000" font-size="14" fill="#596b82" text-anchor="end" font-weight="400" >SVG-PROMPT</text><rect x="80.000" y="230.000" width="608.000" height="273.000" rx="10" fill="#ffffff" stroke="#dce4ee"/><rect x="712.000" y="230.000" width="608.000" height="273.000" rx="10" fill="#ffffff" stroke="#dce4ee"/><rect x="80.000" y="527.000" width="608.000" height="273.000" rx="10" fill="#ffffff" stroke="#dce4ee"/><rect x="712.000" y="527.000" width="608.000" height="273.000" rx="10" fill="#ffffff" stroke="#dce4ee"/><text x="108.000" y="270.000" font-size="18" fill="#596b82" text-anchor="start" font-weight="400" >销售额</text><text x="108.000" y="340.000" font-size="40" fill="#1d2e46" text-anchor="start" font-weight="700" >¥128,450</text><text x="108.000" y="388.000" font-size="16" fill="#2467d5" text-anchor="start" font-weight="400" >↑ 12.4% / 较上一周期</text><path d="M 108.000 455.000 L 186.857 450.939 L 265.714 446.667 L 344.571 441.674 L 423.429 436.334 L 502.286 431.251 L 581.143 425.746 L 660.000 420.000" fill="none" stroke="#2467d5" stroke-width="2" stroke-linecap="round" stroke-linejoin="round" data-kpi-series="12100,25600,39800,56400,74150,91050,109350,128450"/><text x="108.000" y="481.000" font-size="12" fill="#596b82" text-anchor="start" font-weight="400" >累计趋势</text><text x="740.000" y="270.000" font-size="18" fill="#596b82" text-anchor="start" font-weight="400" >订单数</text><text x="740.000" y="340.000" font-size="40" fill="#1d2e46" text-anchor="start" font-weight="700" >840</text><text x="740.000" y="388.000" font-size="16" fill="#167d65" text-anchor="start" font-weight="400" >↑ 5.0% / 较上一周期</text><path d="M 740.000 455.000 L 818.857 451.859 L 897.714 448.269 L 976.571 443.782 L 1055.429 438.846 L 1134.286 433.462 L 1213.143 427.179 L 1292.000 420.000" fill="none" stroke="#167d65" stroke-width="2" stroke-linecap="round" stroke-linejoin="round" data-kpi-series="60,130,210,310,420,540,680,840"/><text x="740.000" y="481.000" font-size="12" fill="#596b82" text-anchor="start" font-weight="400" >累计趋势</text><text x="108.000" y="567.000" font-size="18" fill="#596b82" text-anchor="start" font-weight="400" >支付转化率</text><text x="108.000" y="637.000" font-size="40" fill="#1d2e46" text-anchor="start" font-weight="700" >3.86%</text><text x="108.000" y="685.000" font-size="16" fill="#9b5b0a" text-anchor="start" font-weight="400" >↓ 0.40 个百分点</text><path d="M 108.000 717.000 L 186.857 724.000 L 265.714 729.250 L 344.571 736.250 L 423.429 742.375 L 502.286 738.875 L 581.143 748.500 L 660.000 752.000" fill="none" stroke="#9b5b0a" stroke-width="2" stroke-linecap="round" stroke-linejoin="round" data-kpi-series="4.26,4.18,4.12,4.04,3.97,4.01,3.9,3.86"/><text x="108.000" y="778.000" font-size="12" fill="#596b82" text-anchor="start" font-weight="400" >比率趋势 / 独立尺度</text><text x="740.000" y="567.000" font-size="18" fill="#596b82" text-anchor="start" font-weight="400" >退款率</text><text x="740.000" y="637.000" font-size="40" fill="#1d2e46" text-anchor="start" font-weight="700" >2.10%</text><text x="740.000" y="685.000" font-size="16" fill="#167d65" text-anchor="start" font-weight="400" >↓ 0.40 个百分点</text><path d="M 740.000 717.000 L 818.857 721.375 L 897.714 725.750 L 976.571 732.750 L 1055.429 743.250 L 1134.286 738.875 L 1213.143 746.750 L 1292.000 752.000" fill="none" stroke="#167d65" stroke-width="2" stroke-linecap="round" stroke-linejoin="round" data-kpi-series="2.5,2.45,2.4,2.32,2.2,2.25,2.16,2.1"/><text x="740.000" y="778.000" font-size="12" fill="#596b82" text-anchor="start" font-weight="400" >比率趋势 / 独立尺度</text></svg>
