<svg xmlns="http://www.w3.org/2000/svg" width="1400" height="900" viewBox="0 0 1400 900" font-family="PingFang SC, Microsoft YaHei, sans-serif" role="img" aria-labelledby="title desc"><title id="title">电商商品目录</title><desc id="desc">三商品199/299/99元，使用纯矢量产品示意；目录、搜索与购物车操作明确，无虚假折扣或倒计时。</desc><rect x="0.000" y="0.000" width="1400.000" height="900.000" rx="0" fill="#eef2f7" /><text x="72.000" y="54.000" font-size="14" fill="#596b82" text-anchor="start" font-weight="600" >SVG / PRODUCT INTERFACES</text><text x="1328.000" y="54.000" font-size="14" fill="#596b82" text-anchor="end" font-weight="400" >DEMO · 状态示意</text><line x1="72.000" y1="74.000" x2="1328.000" y2="74.000" stroke="#dce4ee" stroke-width="1" /><text x="72.000" y="122.000" font-size="34" fill="#1d2e46" text-anchor="start" font-weight="700" >电商商品目录</text><text x="72.000" y="160.000" font-size="18" fill="#596b82" text-anchor="start" font-weight="400" >协作与业务操作 / 产品场景与状态设计</text><line x1="72.000" y1="846.000" x2="1328.000" y2="846.000" stroke="#dce4ee" stroke-width="1" /><text x="72.000" y="878.000" font-size="14" fill="#596b82" text-anchor="start" font-weight="400" >界面原型 · 模拟内容 · 控件状态不代表实际交互</text><text x="1328.000" y="878.000" font-size="14" fill="#596b82" text-anchor="end" font-weight="400" >SVG-PROMPT</text><rect x="80.000" y="210.000" width="1240.000" height="610.000" rx="10" fill="#ffffff" stroke="#dce4ee"/><rect x="81.000" y="211.000" width="208.000" height="608.000" rx="10" fill="#eaf1fd" /><text x="110.000" y="252.000" font-size="20" fill="#1d2e46" text-anchor="start" font-weight="700" >ATLAS STORE</text><text x="110.000" y="279.000" font-size="11" fill="#596b82" text-anchor="start" font-weight="400" >WORKSPACE / DEMO</text><rect x="97.000" y="297.000" width="176.000" height="40.000" rx="8" fill="#ffffff" /><text x="115.000" y="321.000" font-size="16" fill="#2467d5" text-anchor="start" font-weight="600" >全部商品</text><text x="115.000" y="373.000" font-size="16" fill="#596b82" text-anchor="start" font-weight="400" >工作设备</text><text x="115.000" y="425.000" font-size="16" fill="#596b82" text-anchor="start" font-weight="400" >配件</text><text x="115.000" y="477.000" font-size="16" fill="#596b82" text-anchor="start" font-weight="400" >收藏</text><circle cx="116.000" cy="766.000" r="18" fill="#eaf1fd" /><text x="116.000" y="771.000" font-size="14" fill="#2467d5" text-anchor="middle" font-weight="600" >林</text><text x="144.000" y="763.000" font-size="14" fill="#1d2e46" text-anchor="start" font-weight="400" >个人工作区</text><text x="144.000" y="785.000" font-size="12" fill="#596b82" text-anchor="start" font-weight="400" >演示账号</text><line x1="310.000" y1="279.000" x2="1290.000" y2="279.000" stroke="#dce4ee" stroke-width="1" /><text x="330.000" y="252.000" font-size="22" fill="#1d2e46" text-anchor="start" font-weight="700" >为工作桌面挑选设备</text><rect x="1140.000" y="226.000" width="150.000" height="42.000" rx="8" fill="#2467d5" stroke="#2467d5" data-control="button" data-state="default"/><text x="1215.000" y="252.000" font-size="15" fill="#fff" text-anchor="middle" font-weight="600" >购物车 · 2</text><text x="330.000" y="330.000" font-size="15" fill="#1d2e46" text-anchor="start" font-weight="600" >搜索商品</text><rect x="330.000" y="344.000" width="960.000" height="48.000" rx="8" fill="#ffffff" stroke="#dce4ee" stroke-width="1" data-control="input" data-state="default"/><text x="345.000" y="374.000" font-size="16" fill="#596b82" text-anchor="start" font-weight="400" >搜索名称或型号</text><rect x="330.000" y="440.000" width="304.000" height="350.000" rx="10" fill="#ffffff" stroke="#dce4ee"/><rect x="346.000" y="456.000" width="272.000" height="150.000" rx="8" fill="#eaf1fd" /><path d="M420 550 A62 62 0 0 1 544 550" fill="none" stroke="#2467d5" stroke-width="10"/><rect x="410.000" y="535.000" width="30.000" height="50.000" rx="8" fill="#2467d5" /><rect x="524.000" y="535.000" width="30.000" height="50.000" rx="8" fill="#2467d5" /><text x="350.000" y="642.000" font-size="23" fill="#1d2e46" text-anchor="start" font-weight="600" >轻量耳机</text><text x="350.000" y="675.000" font-size="14" fill="#596b82" text-anchor="start" font-weight="400" >舒适佩戴 / 通话降噪</text><text x="350.000" y="734.000" font-size="27" fill="#1d2e46" text-anchor="start" font-weight="700" >¥199</text><rect x="490.000" y="708.000" width="124.000" height="42.000" rx="8" fill="#2467d5" stroke="#2467d5" data-control="button" data-state="default"/><text x="552.000" y="734.000" font-size="15" fill="#fff" text-anchor="middle" font-weight="600" >加入购物车</text><rect x="658.000" y="440.000" width="304.000" height="350.000" rx="10" fill="#ffffff" stroke="#dce4ee"/><rect x="674.000" y="456.000" width="272.000" height="150.000" rx="8" fill="#eaf1fd" /><rect x="698.000" y="488.000" width="224.000" height="90.000" rx="8" fill="#ffffff" stroke="#2467d5" stroke-width="2"/><rect x="712.000" y="502.000" width="18.000" height="13.000" rx="3" fill="#eaf1fd" /><rect x="738.000" y="502.000" width="18.000" height="13.000" rx="3" fill="#eaf1fd" /><rect x="764.000" y="502.000" width="18.000" height="13.000" rx="3" fill="#eaf1fd" /><rect x="790.000" y="502.000" width="18.000" height="13.000" rx="3" fill="#eaf1fd" /><rect x="816.000" y="502.000" width="18.000" height="13.000" rx="3" fill="#eaf1fd" /><rect x="842.000" y="502.000" width="18.000" height="13.000" rx="3" fill="#eaf1fd" /><rect x="868.000" y="502.000" width="18.000" height="13.000" rx="3" fill="#eaf1fd" /><rect x="894.000" y="502.000" width="18.000" height="13.000" rx="3" fill="#eaf1fd" /><rect x="712.000" y="524.000" width="18.000" height="13.000" rx="3" fill="#eaf1fd" /><rect x="738.000" y="524.000" width="18.000" height="13.000" rx="3" fill="#eaf1fd" /><rect x="764.000" y="524.000" width="18.000" height="13.000" rx="3" fill="#eaf1fd" /><rect x="790.000" y="524.000" width="18.000" height="13.000" rx="3" fill="#eaf1fd" /><rect x="816.000" y="524.000" width="18.000" height="13.000" rx="3" fill="#eaf1fd" /><rect x="842.000" y="524.000" width="18.000" height="13.000" rx="3" fill="#eaf1fd" /><rect x="868.000" y="524.000" width="18.000" height="13.000" rx="3" fill="#eaf1fd" /><rect x="894.000" y="524.000" width="18.000" height="13.000" rx="3" fill="#eaf1fd" /><rect x="712.000" y="546.000" width="18.000" height="13.000" rx="3" fill="#eaf1fd" /><rect x="738.000" y="546.000" width="18.000" height="13.000" rx="3" fill="#eaf1fd" /><rect x="764.000" y="546.000" width="18.000" height="13.000" rx="3" fill="#eaf1fd" /><rect x="790.000" y="546.000" width="18.000" height="13.000" rx="3" fill="#eaf1fd" /><rect x="816.000" y="546.000" width="18.000" height="13.000" rx="3" fill="#eaf1fd" /><rect x="842.000" y="546.000" width="18.000" height="13.000" rx="3" fill="#eaf1fd" /><rect x="868.000" y="546.000" width="18.000" height="13.000" rx="3" fill="#eaf1fd" /><rect x="894.000" y="546.000" width="18.000" height="13.000" rx="3" fill="#eaf1fd" /><text x="678.000" y="642.000" font-size="23" fill="#1d2e46" text-anchor="start" font-weight="600" >机械键盘</text><text x="678.000" y="675.000" font-size="14" fill="#596b82" text-anchor="start" font-weight="400" >紧凑布局 / 有线连接</text><text x="678.000" y="734.000" font-size="27" fill="#1d2e46" text-anchor="start" font-weight="700" >¥299</text><rect x="818.000" y="708.000" width="124.000" height="42.000" rx="8" fill="#2467d5" stroke="#2467d5" data-control="button" data-state="default"/><text x="880.000" y="734.000" font-size="15" fill="#fff" text-anchor="middle" font-weight="600" >加入购物车</text><rect x="986.000" y="440.000" width="304.000" height="350.000" rx="10" fill="#ffffff" stroke="#dce4ee"/><rect x="1002.000" y="456.000" width="272.000" height="150.000" rx="8" fill="#eaf1fd" /><line x1="1076.000" y1="570.000" x2="1196.000" y2="570.000" stroke="#2467d5" stroke-width="10" /><line x1="1136.000" y1="570.000" x2="1136.000" y2="505.000" stroke="#2467d5" stroke-width="9" /><line x1="1098.000" y1="500.000" x2="1190.000" y2="478.000" stroke="#2467d5" stroke-width="9" /><text x="1006.000" y="642.000" font-size="23" fill="#1d2e46" text-anchor="start" font-weight="600" >桌面支架</text><text x="1006.000" y="675.000" font-size="14" fill="#596b82" text-anchor="start" font-weight="400" >高度可调 / 金属底座</text><text x="1006.000" y="734.000" font-size="27" fill="#1d2e46" text-anchor="start" font-weight="700" >¥99</text><rect x="1146.000" y="708.000" width="124.000" height="42.000" rx="8" fill="#2467d5" stroke="#2467d5" data-control="button" data-state="default"/><text x="1208.000" y="734.000" font-size="15" fill="#fff" text-anchor="middle" font-weight="600" >加入购物车</text></svg>
