<svg xmlns="http://www.w3.org/2000/svg" width="1200" height="800" viewBox="0 0 1200 800" role="img" aria-labelledby="title desc"><title id="title">跨区域流量弦图</title><desc id="desc">每条弦的两端占用真实子弧；外环角度对应区域总往来量。模拟数据，对称往来矩阵 / 模拟数据量 TB。</desc><rect x="0.000" y="0.000" width="1200.000" height="800.000" rx="0" fill="#0d1724" /><text x="72.000" y="56.000" font-size="14" fill="#a2b4c8" text-anchor="start" font-weight="400" font-family="SFMono-Regular, Consolas, monospace">SVG / DATA ATLAS</text><line x1="72.000" y1="72.000" x2="1128.000" y2="72.000" stroke="#293b4d" stroke-width="1" /><text x="72.000" y="119.000" font-size="32" fill="#edf3fa" text-anchor="start" font-weight="700" font-family="PingFang SC, Microsoft YaHei, sans-serif">跨区域流量弦图</text><text x="72.000" y="155.000" font-size="18" fill="#a2b4c8" text-anchor="start" font-weight="400" font-family="PingFang SC, Microsoft YaHei, sans-serif">对称往来矩阵 / 模拟数据量 TB</text><rect x="72.000" y="178.000" width="1056.000" height="49.000" rx="5" fill="#172c40" /><text x="91.000" y="210.000" font-size="18" fill="#edf3fa" text-anchor="start" font-weight="600" font-family="PingFang SC, Microsoft YaHei, sans-serif">每条弦的两端占用真实子弧；外环角度对应区域总往来量</text><line x1="72.000" y1="714.000" x2="1128.000" y2="714.000" stroke="#293b4d" stroke-width="1" /><text x="72.000" y="746.000" font-size="15" fill="#a2b4c8" text-anchor="start" font-weight="400" font-family="PingFang SC, Microsoft YaHei, sans-serif">模拟数据 · 用于图型演示，不代表真实产品或行业结论</text><text x="1128.000" y="746.000" font-size="14" fill="#a2b4c8" text-anchor="end" font-weight="400" font-family="SFMono-Regular, Consolas, monospace">SVG-PROMPT</text><path d="M 430.0 303.0 A 172 172 0 0 1 546.6614839902527 348.61132110354185 Q 430 475 601.4104212774503 489.229106700247 A 172 172 0 0 1 546.3043487839292 601.7173960194343 Q 430 475 430.0 303.0 Z" fill="#2678d9" stroke="none" stroke-width="2" fill-opacity="0.4" data-flow="18" data-angle="0.7453981633974482"/><path d="M 546.6614839902527 348.61132110354185 A 172 172 0 0 1 592.8045866843402 419.51426710819106 Q 430 475 374.0550511567342 637.6473568765393 A 172 172 0 0 1 303.2826039805657 591.3043487839292 Q 430 475 546.6614839902527 348.61132110354185 Z" fill="#2678d9" stroke="none" stroke-width="2" fill-opacity="0.4" data-flow="12" data-angle="0.4969321089316322"/><path d="M 592.8045866843402 419.51426710819106 A 172 172 0 0 1 601.9993151148183 475.4853864784538 Q 430 475 269.80815755758533 412.369547224177 A 172 172 0 0 1 298.8899866868151 363.6709184039656 Q 430 475 592.8045866843402 419.51426710819106 Z" fill="#2678d9" stroke="none" stroke-width="2" fill-opacity="0.4" data-flow="8" data-angle="0.3312880726210881"/><path d="M 546.3043487839292 601.7173960194343 A 172 172 0 0 1 450.83142734003 645.7338620045158 Q 430 475 303.2826039805657 591.3043487839292 A 172 172 0 0 1 259.2661379954842 495.83142734003 Q 430 475 546.3043487839292 601.7173960194343 Z" fill="#00a887" stroke="none" stroke-width="2" fill-opacity="0.4" data-flow="15" data-angle="0.6211651361645402"/><path d="M 450.83142734003 645.7338620045158 A 172 172 0 0 1 387.23189328370336 641.5979863260761 Q 430 475 298.8899866868151 363.6709184039656 A 172 172 0 0 1 348.4292801871372 323.5727314212812 Q 430 475 450.83142734003 645.7338620045158 Z" fill="#00a887" stroke="none" stroke-width="2" fill-opacity="0.4" data-flow="9" data-angle="0.3726990816987241"/><path d="M 259.2661379954842 495.83142734003 A 172 172 0 0 1 265.31540465091007 425.3715398716975 Q 430 475 348.4292801871372 323.5727314212812 A 172 172 0 0 1 416.25467263730224 303.55010651594944 Q 430 475 259.2661379954842 495.83142734003 Z" fill="#ed9c35" stroke="none" stroke-width="2" fill-opacity="0.4" data-flow="10" data-angle="0.4141100907763602"/><path d="M 430.0 281.0 A 194 194 0 0 1 623.9992275132252 475.54747079546536 L 606.9992952053652 475.4994965505019 A 177 177 0 0 0 430.0 298.0 Z" fill="#2678d9" stroke="none" stroke-width="2" /><text x="587.199" y="323.244" font-size="17" fill="#edf3fa" text-anchor="middle" font-weight="400" font-family="PingFang SC, Microsoft YaHei, sans-serif">北区 38</text><path d="M 623.3350100454963 491.04910872004604 A 194 194 0 0 1 381.7615540525491 662.9070310887139 L 385.9886343675319 646.4409510448575 A 177 177 0 0 0 606.3932823610971 489.6427435229286 Z" fill="#00a887" stroke="none" stroke-width="2" /><text x="558.690" y="660.894" font-size="17" fill="#edf3fa" text-anchor="middle" font-weight="400" font-family="PingFang SC, Microsoft YaHei, sans-serif">东区 42</text><path d="M 366.8993018860839 658.4510885700503 A 194 194 0 0 1 244.25109594346836 419.02371357621695 L 260.52806176285515 423.9288520772701 A 177 177 0 0 0 372.42874450431367 642.3754777159737 Z" fill="#ed9c35" stroke="none" stroke-width="2" /><text x="232.415" y="581.214" font-size="17" fill="#edf3fa" text-anchor="middle" font-weight="400" font-family="PingFang SC, Microsoft YaHei, sans-serif">南区 37</text><path d="M 249.3185032916951 404.35867535750197 A 194 194 0 0 1 414.49654936998047 281.62046897729186 L 415.8550991674564 298.5660979844364 A 177 177 0 0 0 265.1514179517012 410.5488945272054 Z" fill="#9268cf" stroke="none" stroke-width="2" /><text x="297.592" y="301.809" font-size="17" fill="#edf3fa" text-anchor="middle" font-weight="400" font-family="PingFang SC, Microsoft YaHei, sans-serif">西区 27</text><text x="755.000" y="301.000" font-size="18" fill="#edf3fa" text-anchor="start" font-weight="600" font-family="PingFang SC, Microsoft YaHei, sans-serif">对称往来矩阵 / TB</text><text x="840.000" y="345.000" font-size="15" fill="#a2b4c8" text-anchor="middle" font-weight="400" font-family="PingFang SC, Microsoft YaHei, sans-serif">北区</text><text x="912.000" y="345.000" font-size="15" fill="#a2b4c8" text-anchor="middle" font-weight="400" font-family="PingFang SC, Microsoft YaHei, sans-serif">东区</text><text x="984.000" y="345.000" font-size="15" fill="#a2b4c8" text-anchor="middle" font-weight="400" font-family="PingFang SC, Microsoft YaHei, sans-serif">南区</text><text x="1056.000" y="345.000" font-size="15" fill="#a2b4c8" text-anchor="middle" font-weight="400" font-family="PingFang SC, Microsoft YaHei, sans-serif">西区</text><text x="755.000" y="396.000" font-size="16" fill="#a2b4c8" text-anchor="start" font-weight="400" font-family="PingFang SC, Microsoft YaHei, sans-serif">北区</text><text x="840.000" y="396.000" font-size="17" fill="#edf3fa" text-anchor="middle" font-weight="400" font-family="SFMono-Regular, Consolas, monospace">0</text><text x="912.000" y="396.000" font-size="17" fill="#edf3fa" text-anchor="middle" font-weight="400" font-family="SFMono-Regular, Consolas, monospace">18</text><text x="984.000" y="396.000" font-size="17" fill="#edf3fa" text-anchor="middle" font-weight="400" font-family="SFMono-Regular, Consolas, monospace">12</text><text x="1056.000" y="396.000" font-size="17" fill="#edf3fa" text-anchor="middle" font-weight="400" font-family="SFMono-Regular, Consolas, monospace">8</text><text x="755.000" y="448.000" font-size="16" fill="#a2b4c8" text-anchor="start" font-weight="400" font-family="PingFang SC, Microsoft YaHei, sans-serif">东区</text><text x="840.000" y="448.000" font-size="17" fill="#edf3fa" text-anchor="middle" font-weight="400" font-family="SFMono-Regular, Consolas, monospace">18</text><text x="912.000" y="448.000" font-size="17" fill="#edf3fa" text-anchor="middle" font-weight="400" font-family="SFMono-Regular, Consolas, monospace">0</text><text x="984.000" y="448.000" font-size="17" fill="#edf3fa" text-anchor="middle" font-weight="400" font-family="SFMono-Regular, Consolas, monospace">15</text><text x="1056.000" y="448.000" font-size="17" fill="#edf3fa" text-anchor="middle" font-weight="400" font-family="SFMono-Regular, Consolas, monospace">9</text><text x="755.000" y="500.000" font-size="16" fill="#a2b4c8" text-anchor="start" font-weight="400" font-family="PingFang SC, Microsoft YaHei, sans-serif">南区</text><text x="840.000" y="500.000" font-size="17" fill="#edf3fa" text-anchor="middle" font-weight="400" font-family="SFMono-Regular, Consolas, monospace">12</text><text x="912.000" y="500.000" font-size="17" fill="#edf3fa" text-anchor="middle" font-weight="400" font-family="SFMono-Regular, Consolas, monospace">15</text><text x="984.000" y="500.000" font-size="17" fill="#edf3fa" text-anchor="middle" font-weight="400" font-family="SFMono-Regular, Consolas, monospace">0</text><text x="1056.000" y="500.000" font-size="17" fill="#edf3fa" text-anchor="middle" font-weight="400" font-family="SFMono-Regular, Consolas, monospace">10</text><text x="755.000" y="552.000" font-size="16" fill="#a2b4c8" text-anchor="start" font-weight="400" font-family="PingFang SC, Microsoft YaHei, sans-serif">西区</text><text x="840.000" y="552.000" font-size="17" fill="#edf3fa" text-anchor="middle" font-weight="400" font-family="SFMono-Regular, Consolas, monospace">8</text><text x="912.000" y="552.000" font-size="17" fill="#edf3fa" text-anchor="middle" font-weight="400" font-family="SFMono-Regular, Consolas, monospace">9</text><text x="984.000" y="552.000" font-size="17" fill="#edf3fa" text-anchor="middle" font-weight="400" font-family="SFMono-Regular, Consolas, monospace">10</text><text x="1056.000" y="552.000" font-size="17" fill="#edf3fa" text-anchor="middle" font-weight="400" font-family="SFMono-Regular, Consolas, monospace">0</text><text x="755.000" y="643.000" font-size="15" fill="#a2b4c8" text-anchor="start" font-weight="400" font-family="PingFang SC, Microsoft YaHei, sans-serif">不表示迁移方向；对称总和含双计</text></svg>
