<svg xmlns="http://www.w3.org/2000/svg" width="1200" height="800" viewBox="0 0 1200 800" font-family="PingFang SC, Hiragino Sans GB, Microsoft YaHei, sans-serif"><title>树状图 Treemap</title><desc>虚构市场份额父块与无重叠型号分区</desc><rect width="1200" height="800" fill="#f6f8fb" /><text x="60" y="76" font-size="28" font-weight="700" fill="#1c2733">树状图 Treemap</text><text x="60" y="104" font-size="14" fill="#6b7785">面积即份额——层级与占比同框</text><rect x="90" y="170" width="258.4" height="520" fill="#4f8ef7" stroke="white" stroke-width="2" /><text x="104" y="200" font-size="16" fill="white" font-weight="700">星芒 34%</text><rect x="100" y="224.0" width="238.39999999999998" height="152.0" fill="white" fill-opacity="0.12" stroke="#4f8ef7" stroke-width="1" /><text x="112" y="250.0" font-size="13" fill="white">型号 1 · 33.3%</text><rect x="100" y="376.0" width="238.39999999999998" height="152.0" fill="white" fill-opacity="0.22" stroke="#4f8ef7" stroke-width="1" /><text x="112" y="402.0" font-size="13" fill="white">型号 2 · 33.3%</text><rect x="100" y="528.0" width="238.39999999999998" height="152.0" fill="white" fill-opacity="0.32" stroke="#4f8ef7" stroke-width="1" /><text x="112" y="554.0" font-size="13" fill="white">型号 3 · 33.3%</text><rect x="348.4" y="170" width="304.067" height="285.714" fill="#9b59f5" stroke="white" stroke-width="2" /><text x="362.4" y="200" font-size="16" fill="white" font-weight="700">流光 22%</text><rect x="358.4" y="224.0" width="284.067" height="110.857" fill="white" fill-opacity="0.12" stroke="#9b59f5" stroke-width="1" /><text x="370.4" y="250.0" font-size="13" fill="white">型号 1 · 50.0%</text><rect x="358.4" y="334.85699999999997" width="284.067" height="110.857" fill="white" fill-opacity="0.22" stroke="#9b59f5" stroke-width="1" /><text x="370.4" y="360.85699999999997" font-size="13" fill="white">型号 2 · 50.0%</text><rect x="652.467" y="170" width="197.533" height="285.714" fill="#f5a83c" stroke="white" stroke-width="2" /><text x="666.467" y="200" font-size="16" fill="white" font-weight="700">晨曦 14%</text><rect x="662.467" y="224.0" width="177.533" height="110.857" fill="white" fill-opacity="0.12" stroke="#f5a83c" stroke-width="1" /><text x="674.467" y="250.0" font-size="13" fill="white">型号 1 · 50.0%</text><rect x="662.467" y="334.85699999999997" width="177.533" height="110.857" fill="white" fill-opacity="0.22" stroke="#f5a83c" stroke-width="1" /><text x="674.467" y="360.85699999999997" font-size="13" fill="white">型号 2 · 50.0%</text><rect x="348.4" y="455.714" width="300.96" height="234.286" fill="#3fb98f" stroke="white" stroke-width="2" /><text x="362.4" y="485.714" font-size="16" fill="white" font-weight="700">磐石 18%</text><rect x="358.4" y="509.714" width="280.96" height="85.143" fill="white" fill-opacity="0.12" stroke="#3fb98f" stroke-width="1" /><text x="370.4" y="535.7139999999999" font-size="13" fill="white">型号 1 · 50.0%</text><rect x="358.4" y="594.857" width="280.96" height="85.143" fill="white" fill-opacity="0.22" stroke="#3fb98f" stroke-width="1" /><text x="370.4" y="620.857" font-size="13" fill="white">型号 2 · 50.0%</text><rect x="649.36" y="455.714" width="200.64" height="234.286" fill="#8091a8" stroke="white" stroke-width="2" /><text x="663.36" y="485.714" font-size="16" fill="white" font-weight="700">其他 12%</text><rect x="659.36" y="509.714" width="180.64" height="85.143" fill="white" fill-opacity="0.12" stroke="#8091a8" stroke-width="1" /><text x="671.36" y="535.7139999999999" font-size="13" fill="white">型号 1 · 50.0%</text><rect x="659.36" y="594.857" width="180.64" height="85.143" fill="white" fill-opacity="0.22" stroke="#8091a8" stroke-width="1" /><text x="671.36" y="620.857" font-size="13" fill="white">型号 2 · 50.0%</text><text x="890" y="220" font-size="14" fill="#6b7785">模拟出货</text><text x="890" y="262" font-size="34" fill="#6b7785">10 亿台</text><text x="890" y="292" font-size="12" fill="#6b7785">虚构数据 · 非年度统计</text><text x="890" y="360" font-size="14" fill="#6b7785">父块面积 = 市场份额</text><text x="890" y="390" font-size="14" fill="#6b7785">子型号在内容区等分</text><text x="890" y="420" font-size="12" fill="#6b7785">标题/边距不计子占比</text></svg>